<?xml version="1.0" encoding="UTF-8"?>
<!DOCTYPE svg PUBLIC "-//W3C//DTD SVG 1.1//EN" "http://www.w3.org/Graphics/SVG/1.1/DTD/svg11.dtd">
<!-- Creator: CorelDRAW -->
<svg xmlns="http://www.w3.org/2000/svg" xml:space="preserve" width="110mm" height="41.588mm" style="shape-rendering:geometricPrecision; text-rendering:geometricPrecision; image-rendering:optimizeQuality; fill-rule:evenodd; clip-rule:evenodd"
viewBox="0 0 110 41.588"
 xmlns:xlink="http://www.w3.org/1999/xlink">
 <defs>
  <style type="text/css">
   <![CDATA[
    .fil0 {fill:#28166F}
    .fil1 {fill:#28166F;fill-rule:nonzero}
   ]]>
  </style>
 </defs>
 <g id="Warstwa_x0020_1">
  <metadata id="CorelCorpID_0Corel-Layer"/>
  <g id="_69657776">
   <path id="_69660896" class="fil0" d="M89.7333 0.025l-12.1658 26.692 2.4715 -0.0245c2.1905,-0.0215 3.7564,-0.139 4.639,-0.4546 1.4193,-0.5078 2.6846,-1.4399 3.7209,-2.7768 1.0368,-1.3376 1.734,-3.1453 2.1213,-5.4013l0.653 0 -0.9436 10.2868 -22.5076 0 12.2666 -26.7832 -1.432 0c-1.4076,0 -2.3295,0.053 -2.7783,0.1494 -0.8385,0.1804 -1.6289,0.5325 -2.3673,1.0702 -0.738,0.5321 -1.352,1.2403 -1.8412,2.1294 -0.4844,0.8889 -0.8676,2.0123 -1.1445,3.3699l-0.6645 -0.0002 0.6647 -8.2571 19.3078 0z"/>
   <path id="_69661184" class="fil0" d="M57.1699 1.6431l0.0154 8.2549 0.5586 -0.9794c0.6633,-0.8227 0.8724,-1.198 1.8099,-1.6776 0.9332,-0.4773 2.3398,-0.6366 3.5507,0.4954 0.4564,0.4266 1.0556,1.408 1.1818,2.4893 0.1058,1.1305 -0.0124,2.0237 -0.3958,3.0564 -0.3765,1.3284 -1.6016,2.8073 -2.4048,3.6122 -0.4013,0.4024 -1.2572,1.2676 -2.3966,2.0212l-1.9595 1.2963c0.006,1.1012 -0.0418,0.3871 0.0179,3.302 0.0307,1.488 0.0408,1.9371 0.1044,2.3338 0.0546,0.3386 0.1253,0.6147 0.5335,1.0107 0.2705,0.2623 0.6715,0.634 1.2175,0.7077l1.6174 0 0 0.7756 -14.9925 0 0 -0.7756 0.901 0c0.7923,0 1.3277,-0.1852 1.7419,-0.5253 0.3629,-0.298 0.5253,-0.5751 0.6378,-1.1147 0.0907,-0.4343 0.1301,-0.9762 0.1321,-2.3935l0.0266 -18.4482c0.0018,-1.5809 -0.0153,-2.4604 -0.1358,-2.826 -0.1266,-0.3848 -0.3016,-0.639 -0.7238,-1.0095 -0.3707,-0.3257 -0.9122,-0.4638 -1.6792,-0.4638l-0.9006 0 0 -0.776 22.872 0 0 8.1305 -0.7597 0c-0.1308,-1.9178 -0.5779,-3.3068 -1.3087,-4.2612 -0.7304,-0.9535 -1.7306,-1.5872 -3.0711,-1.947 -0.8625,-0.2316 -2.6351,-0.2946 -4.8068,-0.2904l-1.3836 0.0022zm-4.6182 5.2706c1.0075,-0.2011 2.2263,0.0025 3.035,0.999 0.377,0.4643 1.2216,1.3666 1.602,2.2913l-0.0552 10.0041c-1.9229,-0.9379 -5.4138,-3.6199 -6.6504,-6.3655 -0.5265,-1.1694 -0.7792,-2.4626 -0.516,-4.0186 0.2412,-1.4255 1.4007,-2.674 2.5846,-2.9103z"/>
   <path id="_69659792" class="fil0" d="M28.9791 0l10.6686 15.2349 0 -9.8434c0,-1.701 -0.2058,-2.8529 -0.6305,-3.4499 -0.5764,-0.8099 -1.5528,-1.1981 -2.9154,-1.166l0 -0.7756 8.1113 0 0 0.7755c-1.0384,0.1498 -1.7382,0.3477 -2.0906,0.5937 -0.3566,0.246 -0.6349,0.642 -0.8342,1.1928 -0.199,0.5509 -0.2966,1.4924 -0.2966,2.8297l0.0003 23.5882 -0.6166 0 -16.6029 -22.921 0 17.3424c0,1.631 0.3221,2.7306 0.9686,3.3002 0.6466,0.5696 1.3859,0.8558 2.2155,0.8558l0.5798 -0.0002 0 0.7756 -8.7094 0 0 -0.7756c1.3534,-0.0105 2.2942,-0.3314 2.8272,-0.9573 0.5288,-0.6258 0.7973,-1.6956 0.7973,-3.1985l0.0002 -19.9942 -0.5284 -0.7542c-0.5192,-0.7489 -0.9784,-1.2461 -1.3769,-1.4816 -0.3986,-0.2356 -0.9688,-0.369 -1.7196,-0.3957l0.0002 -0.7756 10.1521 0z"/>
   <path id="_69650768" class="fil1" d="M-0 33.1961l1.7171 0 3.8693 4.7469 0 -3.6494c0,-0.3886 -0.0445,-0.6324 -0.1306,-0.7278 -0.1163,-0.1307 -0.2979,-0.1961 -0.5463,-0.1961l-0.2199 0 0 -0.1736 2.2031 0 0 0.1736 -0.2247 0c-0.2677,0 -0.4571,0.0813 -0.5686,0.2421 -0.0685,0.1004 -0.102,0.3267 -0.102,0.6818l0 5.3332 -0.1689 0 -4.1719 -5.0958 0 3.8979c0,0.3886 0.0414,0.6307 0.1259,0.7281 0.1179,0.1306 0.301,0.1958 0.5463,0.1958l0.223 0 0 0.1721 -2.2013 0 0 -0.1721 0.2181 0c0.2709,0 0.4619,-0.0813 0.5751,-0.2436 0.0685,-0.0989 0.102,-0.3267 0.102,-0.6803l0 -4.4012c-0.1833,-0.2152 -0.3234,-0.3569 -0.4174,-0.4254 -0.0956,-0.0685 -0.2342,-0.1321 -0.4174,-0.1912 -0.0908,-0.0271 -0.2278,-0.0414 -0.4109,-0.0414l0 -0.1736zm9.7486 5.7122c-0.4379,0.3394 -0.7137,0.5353 -0.8267,0.5879 -0.1672,0.078 -0.3456,0.1179 -0.5353,0.1179 -0.2962,0 -0.5399,-0.102 -0.7311,-0.3042 -0.1912,-0.2025 -0.2866,-0.4684 -0.2866,-0.7981 0,-0.2086 0.0461,-0.3888 0.1401,-0.5417 0.1274,-0.2102 0.3489,-0.4093 0.6642,-0.5974 0.3154,-0.1864 0.841,-0.4124 1.5754,-0.68l0 -0.169c0,-0.4253 -0.0669,-0.7183 -0.2022,-0.8776 -0.1355,-0.1577 -0.333,-0.2374 -0.591,-0.2374 -0.196,0 -0.352,0.0526 -0.4668,0.1592 -0.1178,0.1053 -0.1769,0.2263 -0.1769,0.3633l0.0097 0.2707c0,0.1434 -0.0366,0.2533 -0.1099,0.3315 -0.0733,0.078 -0.1689,0.1161 -0.2868,0.1161 -0.1163,0 -0.2102,-0.0397 -0.2835,-0.1209 -0.0733,-0.0813 -0.1099,-0.1912 -0.1099,-0.3313 0,-0.2677 0.137,-0.5131 0.411,-0.7376 0.274,-0.2231 0.6578,-0.3361 1.1532,-0.3361 0.3791,0 0.6897,0.0637 0.9336,0.1912 0.183,0.0971 0.3185,0.2485 0.4062,0.454 0.0557,0.1337 0.0828,0.4062 0.0828,0.8203l0 1.4511c0,0.4079 0.0079,0.6579 0.0238,0.7502 0.0161,0.091 0.0414,0.1531 0.0764,0.1833 0.0368,0.0319 0.0782,0.0478 0.1243,0.0478 0.0495,0 0.094,-0.0112 0.1306,-0.0335 0.0654,-0.0398 0.1912,-0.1544 0.3776,-0.3408l0 0.2611c-0.3472,0.4668 -0.6803,0.7009 -0.9988,0.7009 -0.1513,0 -0.2723,-0.0524 -0.3632,-0.1592 -0.0908,-0.1051 -0.1369,-0.2868 -0.1402,-0.5417zm0 -0.3025l0 -1.6296c-0.4698,0.1879 -0.7725,0.3201 -0.9095,0.3965 -0.2469,0.137 -0.4221,0.2804 -0.5274,0.4302 -0.1066,0.1498 -0.1592,0.3122 -0.1592,0.4906 0,0.2231 0.0669,0.4095 0.2007,0.5575 0.1339,0.1465 0.2883,0.2214 0.4621,0.2214 0.2372,0 0.5478,-0.156 0.9333,-0.4666zm3.0712 -3.4822l0 0.9622c0.3569,-0.6421 0.7248,-0.9622 1.1008,-0.9622 0.1705,0 0.3121,0.0524 0.4253,0.156 0.1115,0.1053 0.1672,0.2262 0.1672,0.3617 0,0.1227 -0.0398,0.2246 -0.1211,0.309 -0.0811,0.0844 -0.1767,0.1258 -0.2899,0.1258 -0.1082,0 -0.2309,-0.0542 -0.3663,-0.1608 -0.1355,-0.1068 -0.2357,-0.161 -0.3012,-0.161 -0.0557,0 -0.1163,0.0304 -0.1815,0.0925 -0.1401,0.1273 -0.285,0.3377 -0.4333,0.6307l0 2.0486c0,0.2357 0.0287,0.4157 0.0877,0.5368 0.0414,0.0844 0.113,0.1544 0.215,0.2102 0.1035,0.0559 0.25,0.0846 0.4428,0.0846l0 0.1672 -2.1888 0 0 -0.1672c0.2183,0 0.3809,-0.0351 0.486,-0.1036 0.078,-0.0493 0.1322,-0.1291 0.1641,-0.2374 0.0143,-0.0542 0.0222,-0.2038 0.0222,-0.454l0 -1.6566c0,-0.4969 -0.0094,-0.7934 -0.0302,-0.8888 -0.0191,-0.0941 -0.0574,-0.1641 -0.1114,-0.2071 -0.0542,-0.0431 -0.1227,-0.0654 -0.204,-0.0654 -0.0956,0 -0.204,0.024 -0.3267,0.0701l-0.046 -0.1688 1.2935 -0.5225 0.1958 0zm4.0222 0c0.6467,0 1.1659,0.2469 1.5594,0.7375 0.333,0.4205 0.4987,0.9032 0.4987,1.4464 0,0.3839 -0.0925,0.771 -0.2756,1.1629 -0.1833,0.3918 -0.4366,0.6881 -0.7582,0.8873 -0.3218,0.1991 -0.6802,0.2978 -1.0752,0.2978 -0.6452,0 -1.1565,-0.2564 -1.5356,-0.7695 -0.3203,-0.4333 -0.4811,-0.919 -0.4811,-1.4558 0,-0.3934 0.0971,-0.7822 0.2914,-1.1693 0.1943,-0.387 0.4509,-0.6738 0.7679,-0.8586 0.317,-0.1864 0.653,-0.2787 1.0083,-0.2787zm-0.145 0.3042c-0.1641,0 -0.3297,0.0478 -0.4969,0.1465 -0.1657,0.0989 -0.3012,0.2692 -0.4031,0.5161 -0.1036,0.2454 -0.1545,0.5609 -0.1545,0.9464 0,0.6227 0.1243,1.1595 0.3712,1.6104 0.2469,0.4507 0.5734,0.677 0.9781,0.677 0.3009,0 0.5496,-0.1243 0.747,-0.3727 0.196,-0.2503 0.2931,-0.6772 0.2931,-1.2841 0,-0.7597 -0.1625,-1.3571 -0.4905,-1.792 -0.2199,-0.2993 -0.5018,-0.4476 -0.8444,-0.4476zm5.8525 3.616c-0.2086,0.2183 -0.4126,0.3744 -0.6117,0.4698 -0.1992,0.0941 -0.4142,0.1419 -0.6435,0.1419 -0.4668,0 -0.8745,-0.1959 -1.2234,-0.5862 -0.3474,-0.3903 -0.5225,-0.8921 -0.5225,-1.5038 0,-0.6133 0.1927,-1.1739 0.5798,-1.6837 0.3855,-0.5082 0.8809,-0.763 1.4877,-0.763 0.3761,0 0.6882,0.1211 0.9336,0.3599l0 -0.7884c0,-0.489 -0.0112,-0.7886 -0.035,-0.9016 -0.024,-0.1115 -0.0606,-0.1879 -0.11,-0.2278 -0.0493,-0.0414 -0.1114,-0.0606 -0.1863,-0.0606 -0.0813,0 -0.1881,0.024 -0.3218,0.0749l-0.0606 -0.1641 1.2743 -0.5225 0.2088 0 0 4.9429c0,0.5003 0.0126,0.8061 0.0351,0.916 0.0238,0.1114 0.0603,0.1879 0.113,0.231 0.0511,0.0446 0.1114,0.0653 0.1784,0.0653 0.0844,0 0.1976,-0.0256 0.3362,-0.0796l0.0524 0.1639 -1.2695 0.5274 -0.215 0 0 -0.6117zm0 -0.3265l0 -2.2031c-0.0192,-0.2103 -0.0749,-0.4046 -0.1672,-0.5782 -0.0941,-0.1736 -0.2183,-0.306 -0.3712,-0.3934 -0.1546,-0.0892 -0.3044,-0.1339 -0.4509,-0.1339 -0.274,0 -0.5177,0.1226 -0.7327,0.368 -0.2835,0.325 -0.4253,0.7964 -0.4253,1.4193 0,0.6292 0.137,1.1103 0.411,1.4448 0.274,0.3345 0.5783,0.5017 0.9142,0.5017 0.2837,0 0.5576,-0.1417 0.8221,-0.4252zm3.8501 -3.5937c0.6467,0 1.166,0.2469 1.5594,0.7375 0.333,0.4205 0.4987,0.9032 0.4987,1.4464 0,0.3839 -0.0925,0.771 -0.2756,1.1629 -0.1832,0.3918 -0.4366,0.6881 -0.7582,0.8873 -0.3218,0.1991 -0.6802,0.2978 -1.0752,0.2978 -0.6452,0 -1.1565,-0.2564 -1.5356,-0.7695 -0.3203,-0.4333 -0.4811,-0.919 -0.4811,-1.4558 0,-0.3934 0.0972,-0.7822 0.2915,-1.1693 0.1943,-0.387 0.4509,-0.6738 0.7679,-0.8586 0.3169,-0.1864 0.6529,-0.2787 1.0082,-0.2787zm-0.1449 0.3042c-0.1642,0 -0.3298,0.0478 -0.497,0.1465 -0.1657,0.0989 -0.3011,0.2692 -0.4031,0.5161 -0.1035,0.2454 -0.1544,0.5609 -0.1544,0.9464 0,0.6227 0.1242,1.1595 0.3711,1.6104 0.247,0.4507 0.5734,0.677 0.9781,0.677 0.3009,0 0.5496,-0.1243 0.747,-0.3727 0.196,-0.2503 0.2932,-0.6772 0.2932,-1.2841 0,-0.7597 -0.1626,-1.3571 -0.4906,-1.792 -0.2199,-0.2993 -0.5018,-0.4476 -0.8443,-0.4476zm2.5949 -0.1784l1.792 0 0 0.1736c-0.1641,0.0127 -0.2725,0.0414 -0.3249,0.0876 -0.0511,0.0478 -0.0765,0.1148 -0.0765,0.2007 0,0.0972 0.0271,0.2135 0.0796,0.3505l0.9144 2.4595 0.9192 -2.0024 -0.2423 -0.6291c-0.0747,-0.1864 -0.1721,-0.3155 -0.2946,-0.3871 -0.0685,-0.0447 -0.196,-0.07 -0.3823,-0.0797l0 -0.1736 2.0358 0 0 0.1736c-0.2247,0.0097 -0.384,0.0493 -0.4763,0.1211 -0.0621,0.0494 -0.094,0.1291 -0.094,0.2373 0,0.0621 0.0128,0.126 0.0381,0.1912l0.9701 2.4563 0.9001 -2.3671c0.0621,-0.1672 0.0941,-0.3011 0.0941,-0.4014 0,-0.059 -0.0304,-0.1114 -0.0908,-0.1577 -0.0606,-0.0478 -0.1802,-0.0733 -0.3569,-0.0797l0 -0.1736 1.3475 0 0 0.1736c-0.2707,0.0398 -0.4698,0.2231 -0.5972,0.5496l-1.4274 3.6829 -0.191 0 -1.069 -2.7304 -1.2455 2.7304 -0.1738 0 -1.3715 -3.5937c-0.0907,-0.2262 -0.1784,-0.3807 -0.2661,-0.4588 -0.0874,-0.0796 -0.2245,-0.1402 -0.4108,-0.18l0 -0.1736zm6.8973 0l1.9927 0 0 0.1736 -0.0972 0c-0.1401,0 -0.2452,0.0304 -0.3152,0.0909 -0.0703,0.0604 -0.1053,0.1353 -0.1053,0.2261 0,0.1211 0.0511,0.2899 0.1546,0.5033l1.0402 2.157 0.9573 -2.3608c0.0525,-0.129 0.078,-0.2548 0.078,-0.3791 0,-0.0557 -0.011,-0.0971 -0.0317,-0.1258 -0.0256,-0.0334 -0.0639,-0.0605 -0.1163,-0.0812 -0.0542,-0.0207 -0.1467,-0.0304 -0.2804,-0.0304l0 -0.1736 1.3906 0 0 0.1736c-0.1147,0.0127 -0.204,0.0367 -0.2661,0.0749 -0.0621,0.0367 -0.1306,0.1068 -0.2055,0.2103 -0.0286,0.043 -0.0811,0.1624 -0.1593,0.3584l-1.7393 4.2658c-0.169,0.4142 -0.3888,0.7265 -0.6611,0.9384 -0.2725,0.2117 -0.5337,0.317 -0.787,0.317 -0.1831,0 -0.3345,-0.0526 -0.4523,-0.1595 -0.1179,-0.1051 -0.1769,-0.226 -0.1769,-0.363 0,-0.1306 0.043,-0.2359 0.1275,-0.3155 0.086,-0.0797 0.2038,-0.1194 0.3536,-0.1194 0.102,0 0.2421,0.0351 0.419,0.1036 0.1242,0.046 0.2022,0.07 0.2341,0.07 0.0924,0 0.1943,-0.0493 0.3058,-0.1449 0.1099,-0.0972 0.2214,-0.2835 0.3329,-0.5608l0.3044 -0.7406 -1.5356 -3.2259c-0.0478,-0.0956 -0.1212,-0.2165 -0.2247,-0.3584 -0.078,-0.1099 -0.1418,-0.183 -0.1912,-0.2198 -0.0716,-0.0493 -0.1864,-0.0939 -0.3456,-0.1306l0 -0.1736zm9.0686 -1.7076l0 2.4881 1.1516 0c0.2646,0 0.4589,-0.0589 0.5816,-0.1752 0.1226,-0.1163 0.2037,-0.3472 0.2451,-0.693l0.1721 0 0 2.1409 -0.1721 0c-0.0031,-0.2451 -0.035,-0.4251 -0.0954,-0.5399 -0.0605,-0.1163 -0.1451,-0.2024 -0.2533,-0.2597 -0.1068,-0.0573 -0.2661,-0.0859 -0.478,-0.0859l-1.1516 0 0 1.9878c0,0.3203 0.0191,0.5322 0.0605,0.634 0.0302,0.0782 0.0956,0.145 0.1959,0.2009 0.137,0.0747 0.2789,0.113 0.4286,0.113l0.2294 0 0 0.1721 -2.7161 0 0 -0.1721 0.2231 0c0.2613,0 0.4525,-0.0764 0.5703,-0.2293 0.0749,-0.0989 0.1115,-0.3394 0.1115,-0.7186l0 -4.0889c0,-0.3202 -0.0207,-0.5321 -0.0606,-0.6341 -0.0319,-0.078 -0.0956,-0.145 -0.1912,-0.2007 -0.1337,-0.0749 -0.2771,-0.1115 -0.43,-0.1115l-0.2231 0 0 -0.1736 4.7088 0 0.0605 1.3907 -0.1641 0c-0.0795,-0.2948 -0.1751,-0.5113 -0.2819,-0.6501 -0.1067,-0.1385 -0.2388,-0.2388 -0.3966,-0.3009 -0.1577,-0.0621 -0.3998,-0.094 -0.7295,-0.094l-1.3955 0zm7.4056 1.7076l0 2.5901c0,0.4954 0.0111,0.7981 0.0351,0.908 0.0238,0.1114 0.0604,0.1879 0.1114,0.231 0.0527,0.0446 0.1115,0.0653 0.18,0.0653 0.0972,0 0.2055,-0.0256 0.3265,-0.0796l0.0654 0.1639 -1.2792 0.5274 -0.2086 0 0 -0.9047c-0.3681,0.398 -0.6483,0.6483 -0.841,0.7503 -0.1928,0.1035 -0.3968,0.1544 -0.6102,0.1544 -0.2406,0 -0.4476,-0.0685 -0.6245,-0.2071 -0.1751,-0.1385 -0.2978,-0.317 -0.3663,-0.5353 -0.0685,-0.2183 -0.102,-0.5256 -0.102,-0.9238l0 -1.9084c0,-0.2024 -0.0223,-0.3425 -0.0652,-0.4205 -0.043,-0.0782 -0.1084,-0.137 -0.1943,-0.1799 -0.0846,-0.0415 -0.2406,-0.0606 -0.4637,-0.0575l0 -0.1736 1.4975 0 0 2.861c0,0.3981 0.07,0.6593 0.2086,0.7836 0.1385,0.126 0.3059,0.1881 0.5018,0.1881 0.1337,0 0.285,-0.0432 0.454,-0.126 0.1705,-0.0844 0.3711,-0.2452 0.6053,-0.4809l0 -2.4229c0,-0.2421 -0.0447,-0.4062 -0.1339,-0.4923 -0.0892,-0.0844 -0.2723,-0.1306 -0.5527,-0.137l0 -0.1736 1.456 0zm2.2778 0.7805c0.5002,-0.6036 0.978,-0.9063 1.432,-0.9063 0.2342,0 0.4351,0.0588 0.6023,0.1751 0.1687,0.1163 0.3027,0.3091 0.4014,0.5767 0.0685,0.1864 0.1019,0.4732 0.1019,0.8587l0 1.8255c0,0.2692 0.0223,0.454 0.067,0.5496 0.0333,0.078 0.0892,0.1385 0.1656,0.183 0.0749,0.043 0.2166,0.0655 0.4221,0.0655l0 0.1672 -2.1154 0 0 -0.1672 0.0893 0c0.1991,0 0.3392,-0.032 0.4172,-0.0926 0.0797,-0.0603 0.1354,-0.1495 0.1656,-0.2676 0.0128,-0.046 0.0192,-0.1927 0.0192,-0.4379l0 -1.7506c0,-0.3888 -0.0509,-0.6708 -0.1513,-0.8475 -0.102,-0.1753 -0.2723,-0.2629 -0.5113,-0.2629 -0.3696,0 -0.7391,0.2024 -1.1056,0.6068l0 2.2542c0,0.2883 0.0161,0.4667 0.0511,0.5353 0.0429,0.0907 0.1035,0.1575 0.18,0.1989 0.0764,0.0414 0.2308,0.0639 0.4634,0.0639l0 0.1672 -2.1138 0 0 -0.1672 0.0941 0c0.2165,0 0.3647,-0.0558 0.4412,-0.1657 0.0749,-0.1117 0.113,-0.3218 0.113,-0.6324l0 -1.5883c0,-0.5128 -0.011,-0.8251 -0.035,-0.9366 -0.0223,-0.113 -0.0589,-0.1895 -0.1067,-0.2293 -0.0478,-0.0399 -0.1132,-0.0606 -0.1943,-0.0606 -0.0861,0 -0.1911,0.024 -0.3123,0.0701l-0.07 -0.1688 1.2886 -0.5225 0.2007 0 0 0.9063zm6.5518 3.0139c-0.2086,0.2183 -0.4125,0.3744 -0.6117,0.4698 -0.1991,0.0941 -0.4141,0.1419 -0.6434,0.1419 -0.4668,0 -0.8746,-0.1959 -1.2235,-0.5862 -0.3473,-0.3903 -0.5225,-0.8921 -0.5225,-1.5038 0,-0.6133 0.1928,-1.1739 0.5798,-1.6837 0.3855,-0.5082 0.8809,-0.763 1.4878,-0.763 0.376,0 0.6882,0.1211 0.9335,0.3599l0 -0.7884c0,-0.489 -0.0112,-0.7886 -0.035,-0.9016 -0.024,-0.1115 -0.0606,-0.1879 -0.1099,-0.2278 -0.0493,-0.0414 -0.1115,-0.0606 -0.1864,-0.0606 -0.0812,0 -0.1881,0.024 -0.3218,0.0749l-0.0606 -0.1641 1.2744 -0.5225 0.2088 0 0 4.9429c0,0.5003 0.0126,0.8061 0.035,0.916 0.0238,0.1114 0.0604,0.1879 0.113,0.231 0.0511,0.0446 0.1115,0.0653 0.1785,0.0653 0.0843,0 0.1975,-0.0256 0.3361,-0.0796l0.0524 0.1639 -1.2694 0.5274 -0.2151 0 0 -0.6117zm0 -0.3265l0 -2.2031c-0.0191,-0.2103 -0.0748,-0.4046 -0.1672,-0.5782 -0.094,-0.1736 -0.2182,-0.306 -0.3711,-0.3934 -0.1547,-0.0892 -0.3044,-0.1339 -0.4509,-0.1339 -0.2741,0 -0.5177,0.1226 -0.7327,0.368 -0.2835,0.325 -0.4254,0.7964 -0.4254,1.4193 0,0.6292 0.137,1.1103 0.4111,1.4448 0.274,0.3345 0.5782,0.5017 0.9142,0.5017 0.2837,0 0.5575,-0.1417 0.822,-0.4252zm5.5069 -3.4679l0 2.5901c0,0.4954 0.011,0.7981 0.035,0.908 0.0238,0.1114 0.0604,0.1879 0.1115,0.231 0.0526,0.0446 0.1115,0.0653 0.18,0.0653 0.0971,0 0.2055,-0.0256 0.3264,-0.0796l0.0654 0.1639 -1.2791 0.5274 -0.2087 0 0 -0.9047c-0.368,0.398 -0.6482,0.6483 -0.841,0.7503 -0.1927,0.1035 -0.3967,0.1544 -0.6102,0.1544 -0.2405,0 -0.4476,-0.0685 -0.6245,-0.2071 -0.1751,-0.1385 -0.2978,-0.317 -0.3663,-0.5353 -0.0685,-0.2183 -0.102,-0.5256 -0.102,-0.9238l0 -1.9084c0,-0.2024 -0.0222,-0.3425 -0.0652,-0.4205 -0.043,-0.0782 -0.1084,-0.137 -0.1943,-0.1799 -0.0846,-0.0415 -0.2405,-0.0606 -0.4637,-0.0575l0 -0.1736 1.4975 0 0 2.861c0,0.3981 0.0701,0.6593 0.2086,0.7836 0.1386,0.126 0.306,0.1881 0.5018,0.1881 0.1337,0 0.2851,-0.0432 0.454,-0.126 0.1705,-0.0844 0.3712,-0.2452 0.6053,-0.4809l0 -2.4229c0,-0.2421 -0.0447,-0.4062 -0.1339,-0.4923 -0.0892,-0.0844 -0.2723,-0.1306 -0.5527,-0.137l0 -0.1736 1.4561 0zm3.7944 -0.1258l0 1.4559 -0.1547 0c-0.1178,-0.4571 -0.2692,-0.7677 -0.454,-0.9334 -0.1863,-0.1641 -0.422,-0.2469 -0.7071,-0.2469 -0.2183,0 -0.3936,0.0573 -0.5273,0.1736 -0.1338,0.1147 -0.2007,0.2421 -0.2007,0.3824 0,0.1735 0.0493,0.3233 0.148,0.4476 0.0972,0.1273 0.2932,0.2628 0.5895,0.4062l0.6802 0.3313c0.6324,0.3073 0.9477,0.7135 0.9477,1.2186 0,0.3886 -0.1465,0.7007 -0.4412,0.9397 -0.293,0.2375 -0.6228,0.3569 -0.986,0.3569 -0.2628,0 -0.5607,-0.0463 -0.8968,-0.1401 -0.102,-0.0304 -0.1864,-0.0463 -0.2518,-0.0463 -0.0716,0 -0.1273,0.0399 -0.1687,0.121l-0.1529 0 0 -1.5259 0.1529 0c0.0874,0.4348 0.2548,0.763 0.5,0.9844 0.2454,0.2214 0.521,0.3313 0.8252,0.3313 0.215,0 0.3903,-0.0621 0.5258,-0.1879 0.1353,-0.1275 0.2022,-0.2789 0.2022,-0.4557 0,-0.215 -0.0749,-0.395 -0.2262,-0.5415 -0.1498,-0.1465 -0.4507,-0.3313 -0.9032,-0.556 -0.4509,-0.2229 -0.7454,-0.4254 -0.8857,-0.6053 -0.1401,-0.1785 -0.2102,-0.4014 -0.2102,-0.6721 0,-0.3522 0.121,-0.6468 0.3615,-0.8827 0.2406,-0.2357 0.5529,-0.3551 0.9351,-0.3551 0.169,0 0.3727,0.0366 0.6117,0.1084 0.1593,0.046 0.2644,0.07 0.317,0.07 0.0509,0 0.0892,-0.0112 0.1179,-0.0335 0.0271,-0.0222 0.0606,-0.07 0.0971,-0.1449l0.1547 0zm4.672 3.0903l-0.0527 1.311 -3.7704 0 0 -0.1672 2.8371 -3.7816 -1.4004 0c-0.3009,0 -0.4985,0.0207 -0.5925,0.0588 -0.0923,0.0398 -0.1688,0.1132 -0.2278,0.2214 -0.0844,0.1561 -0.1322,0.3489 -0.1449,0.5798l-0.1864 0 0.0271 -1.1867 3.5842 0 0 0.1736 -2.8641 3.7897 1.5578 0c0.3265,0 0.5479,-0.0271 0.6659,-0.0828 0.1161,-0.0542 0.2102,-0.1498 0.282,-0.2868 0.0493,-0.0987 0.0908,-0.3091 0.1258,-0.6292l0.1593 0zm8.1143 -5.0178l-4.1574 5.9464 2.5947 0c0.3983,0 0.7042,-0.0875 0.916,-0.2611 0.2134,-0.1753 0.4031,-0.5273 0.5672,-1.0593l0.1544 0.0271 -0.2978 1.6757 -5.1531 0 0 -0.1721 4.0602 -5.7776 -2.0246 0c-0.3361,0 -0.5798,0.0366 -0.7311,0.1084 -0.1513,0.0732 -0.2661,0.18 -0.3456,0.3185 -0.0798,0.1386 -0.1514,0.3968 -0.2168,0.7759l-0.1767 0 0.1307 -1.5819 4.6799 0zm3.6591 5.8477c-0.2086,0.2183 -0.4126,0.3744 -0.6117,0.4698 -0.1992,0.0941 -0.4142,0.1419 -0.6435,0.1419 -0.4668,0 -0.8745,-0.1959 -1.2234,-0.5862 -0.3474,-0.3903 -0.5225,-0.8921 -0.5225,-1.5038 0,-0.6133 0.1927,-1.1739 0.5798,-1.6837 0.3855,-0.5082 0.8809,-0.763 1.4878,-0.763 0.376,0 0.6881,0.1211 0.9335,0.3599l0 -0.7884c0,-0.489 -0.0112,-0.7886 -0.035,-0.9016 -0.024,-0.1115 -0.0606,-0.1879 -0.1099,-0.2278 -0.0494,-0.0414 -0.1115,-0.0606 -0.1864,-0.0606 -0.0813,0 -0.1881,0.024 -0.3218,0.0749l-0.0606 -0.1641 1.2743 -0.5225 0.2088 0 0 4.9429c0,0.5003 0.0126,0.8061 0.0351,0.916 0.0238,0.1114 0.0603,0.1879 0.113,0.231 0.0511,0.0446 0.1115,0.0653 0.1784,0.0653 0.0844,0 0.1976,-0.0256 0.3362,-0.0796l0.0524 0.1639 -1.2695 0.5274 -0.215 0 0 -0.6117zm0 -0.3265l0 -2.2031c-0.0192,-0.2103 -0.0749,-0.4046 -0.1672,-0.5782 -0.0941,-0.1736 -0.2183,-0.306 -0.3712,-0.3934 -0.1546,-0.0892 -0.3044,-0.1339 -0.4509,-0.1339 -0.274,0 -0.5177,0.1226 -0.7327,0.368 -0.2835,0.325 -0.4253,0.7964 -0.4253,1.4193 0,0.6292 0.137,1.1103 0.411,1.4448 0.2741,0.3345 0.5783,0.5017 0.9142,0.5017 0.2837,0 0.5576,-0.1417 0.8221,-0.4252zm3.0106 -3.5937l0 0.9622c0.3569,-0.6421 0.7247,-0.9622 1.1008,-0.9622 0.1705,0 0.3121,0.0524 0.4253,0.156 0.1115,0.1053 0.1672,0.2262 0.1672,0.3617 0,0.1227 -0.0398,0.2246 -0.1211,0.309 -0.0811,0.0844 -0.1767,0.1258 -0.2899,0.1258 -0.1082,0 -0.2309,-0.0542 -0.3664,-0.1608 -0.1354,-0.1068 -0.2357,-0.161 -0.3011,-0.161 -0.0557,0 -0.1163,0.0304 -0.1815,0.0925 -0.1401,0.1273 -0.2851,0.3377 -0.4333,0.6307l0 2.0486c0,0.2357 0.0287,0.4157 0.0877,0.5368 0.0414,0.0844 0.113,0.1544 0.215,0.2102 0.1035,0.0559 0.25,0.0846 0.4428,0.0846l0 0.1672 -2.1888 0 0 -0.1672c0.2183,0 0.3809,-0.0351 0.486,-0.1036 0.0779,-0.0493 0.1321,-0.1291 0.1641,-0.2374 0.0143,-0.0542 0.0222,-0.2038 0.0222,-0.454l0 -1.6566c0,-0.4969 -0.0095,-0.7934 -0.0302,-0.8888 -0.0191,-0.0941 -0.0574,-0.1641 -0.1114,-0.2071 -0.0542,-0.0431 -0.1227,-0.0654 -0.204,-0.0654 -0.0956,0 -0.204,0.024 -0.3267,0.0701l-0.046 -0.1688 1.2935 -0.5225 0.1958 0zm4.0222 0c0.6467,0 1.1659,0.2469 1.5594,0.7375 0.333,0.4205 0.4987,0.9032 0.4987,1.4464 0,0.3839 -0.0925,0.771 -0.2756,1.1629 -0.1833,0.3918 -0.4366,0.6881 -0.7582,0.8873 -0.3219,0.1991 -0.6803,0.2978 -1.0752,0.2978 -0.6452,0 -1.1565,-0.2564 -1.5356,-0.7695 -0.3203,-0.4333 -0.4811,-0.919 -0.4811,-1.4558 0,-0.3934 0.0971,-0.7822 0.2914,-1.1693 0.1943,-0.387 0.4509,-0.6738 0.7679,-0.8586 0.317,-0.1864 0.653,-0.2787 1.0083,-0.2787zm-0.145 0.3042c-0.1641,0 -0.3298,0.0478 -0.497,0.1465 -0.1656,0.0989 -0.3011,0.2692 -0.4031,0.5161 -0.1035,0.2454 -0.1544,0.5609 -0.1544,0.9464 0,0.6227 0.1243,1.1595 0.3712,1.6104 0.2469,0.4507 0.5734,0.677 0.978,0.677 0.301,0 0.5496,-0.1243 0.747,-0.3727 0.1961,-0.2503 0.2932,-0.6772 0.2932,-1.2841 0,-0.7597 -0.1625,-1.3571 -0.4906,-1.792 -0.2198,-0.2993 -0.5018,-0.4476 -0.8443,-0.4476zm2.5949 -0.1784l1.792 0 0 0.1736c-0.1641,0.0127 -0.2724,0.0414 -0.3249,0.0876 -0.0511,0.0478 -0.0764,0.1148 -0.0764,0.2007 0,0.0972 0.0271,0.2135 0.0795,0.3505l0.9144 2.4595 0.9192 -2.0024 -0.2423 -0.6291c-0.0747,-0.1864 -0.172,-0.3155 -0.2945,-0.3871 -0.0685,-0.0447 -0.196,-0.07 -0.3824,-0.0797l0 -0.1736 2.0358 0 0 0.1736c-0.2246,0.0097 -0.3839,0.0493 -0.4762,0.1211 -0.0621,0.0494 -0.0941,0.1291 -0.0941,0.2373 0,0.0621 0.0128,0.126 0.0382,0.1912l0.9701 2.4563 0.9001 -2.3671c0.0621,-0.1672 0.094,-0.3011 0.094,-0.4014 0,-0.059 -0.0304,-0.1114 -0.0908,-0.1577 -0.0605,-0.0478 -0.1801,-0.0733 -0.3568,-0.0797l0 -0.1736 1.3475 0 0 0.1736c-0.2708,0.0398 -0.4699,0.2231 -0.5972,0.5496l-1.4274 3.6829 -0.191 0 -1.0691 -2.7304 -1.2455 2.7304 -0.1737 0 -1.3715 -3.5937c-0.0908,-0.2262 -0.1785,-0.3807 -0.2661,-0.4588 -0.0875,-0.0796 -0.2245,-0.1402 -0.4109,-0.18l0 -0.1736zm8.2274 -2.3608c0.1306,0 0.2421,0.0463 0.3346,0.137 0.0908,0.0925 0.137,0.204 0.137,0.3346 0,0.1307 -0.0462,0.2421 -0.137,0.3362 -0.0925,0.0923 -0.204,0.1401 -0.3346,0.1401 -0.1306,0 -0.2421,-0.0478 -0.3361,-0.1401 -0.0924,-0.0941 -0.1402,-0.2055 -0.1402,-0.3362 0,-0.1306 0.0463,-0.2421 0.1386,-0.3346 0.0908,-0.0907 0.204,-0.137 0.3377,-0.137zm0.387 2.235l0 3.436c0,0.2676 0.0192,0.4443 0.0591,0.5335 0.0383,0.0892 0.0956,0.1546 0.172,0.1991 0.0764,0.043 0.2166,0.0655 0.419,0.0655l0 0.1672 -2.0773 0 0 -0.1672c0.2088,0 0.3489,-0.0208 0.419,-0.0622 0.0716,-0.0398 0.1291,-0.1068 0.1705,-0.2006 0.0429,-0.0926 0.0637,-0.271 0.0637,-0.5353l0 -1.6488c0,-0.4635 -0.0144,-0.7629 -0.0415,-0.8999 -0.0222,-0.1004 -0.0572,-0.1689 -0.1035,-0.2071 -0.0462,-0.0398 -0.1099,-0.059 -0.1912,-0.059 -0.0875,0 -0.1927,0.024 -0.317,0.0701l-0.0652 -0.1688 1.2871 -0.5225 0.2053 0zm3.6034 3.7847c-0.4379,0.3394 -0.7137,0.5353 -0.8267,0.5879 -0.1672,0.078 -0.3456,0.1179 -0.5353,0.1179 -0.2963,0 -0.5399,-0.102 -0.7311,-0.3042 -0.1912,-0.2025 -0.2866,-0.4684 -0.2866,-0.7981 0,-0.2086 0.046,-0.3888 0.1401,-0.5417 0.1273,-0.2102 0.3489,-0.4093 0.6642,-0.5974 0.3154,-0.1864 0.841,-0.4124 1.5754,-0.68l0 -0.169c0,-0.4253 -0.067,-0.7183 -0.2022,-0.8776 -0.1355,-0.1577 -0.3331,-0.2374 -0.591,-0.2374 -0.1961,0 -0.3521,0.0526 -0.4668,0.1592 -0.1179,0.1053 -0.1769,0.2263 -0.1769,0.3633l0.0097 0.2707c0,0.1434 -0.0366,0.2533 -0.1099,0.3315 -0.0734,0.078 -0.169,0.1161 -0.2868,0.1161 -0.1163,0 -0.2102,-0.0397 -0.2835,-0.1209 -0.0734,-0.0813 -0.11,-0.1912 -0.11,-0.3313 0,-0.2677 0.1371,-0.5131 0.4111,-0.7376 0.274,-0.2231 0.6578,-0.3361 1.1532,-0.3361 0.3791,0 0.6897,0.0637 0.9335,0.1912 0.1831,0.0971 0.3186,0.2485 0.4062,0.454 0.0558,0.1337 0.0828,0.4062 0.0828,0.8203l0 1.4511c0,0.4079 0.008,0.6579 0.0239,0.7502 0.016,0.091 0.0414,0.1531 0.0764,0.1833 0.0368,0.0319 0.0782,0.0478 0.1242,0.0478 0.0496,0 0.0941,-0.0112 0.1307,-0.0335 0.0654,-0.0398 0.1912,-0.1544 0.3775,-0.3408l0 0.2611c-0.3472,0.4668 -0.6802,0.7009 -0.9987,0.7009 -0.1514,0 -0.2723,-0.0524 -0.3633,-0.1592 -0.0907,-0.1051 -0.1368,-0.2868 -0.1401,-0.5417zm0 -0.3025l0 -1.6296c-0.4699,0.1879 -0.7725,0.3201 -0.9095,0.3965 -0.247,0.137 -0.4221,0.2804 -0.5274,0.4302 -0.1066,0.1498 -0.1593,0.3122 -0.1593,0.4906 0,0.2231 0.067,0.4095 0.2007,0.5575 0.1339,0.1465 0.2884,0.2214 0.4622,0.2214 0.2372,0 0.5478,-0.156 0.9333,-0.4666z"/>
  </g>
 </g>
</svg>
